<svg xmlns="http://www.w3.org/2000/svg" width="256" height="256"><path fill-opacity=".016" d="M0 128.004v128.004l128.25-.254 128.25-.254.254-127.75L257.008 0H0v128.004m.485.496c0 70.4.119 99.053.265 63.672.146-35.38.146-92.98 0-128C.604 29.153.485 58.1.485 128.5" fill="#D6D6D6" fill-rule="evenodd"/><path fill-opacity=".147" d="M84.19 22.353c-1.271.705-3.18 2.602-4.244 4.214-1.704 2.586-1.934 4.799-1.939 18.683L78 61H67.95c-10.761 0-14.526 1.13-17.389 5.217C49.189 68.176 49 75.671 49 128.207v59.761l2.916 3.266 2.916 3.266 25.834.5 25.834.5.5 16.835.5 16.835 3.266 2.915 3.266 2.915h85.936l3.266-2.917 3.266-2.918.278-48.59.277-48.591-10.921-11.795c-6.007-6.488-12.545-13.22-14.528-14.962L178 102.061v-24.58c0-19.279-.306-25.163-1.418-27.281-.78-1.485-7.454-8.662-14.833-15.95L148.334 21l-30.917.035c-23.221.027-31.492.355-33.227 1.318M92 48v13h27.334l13.415 13.25c7.379 7.287 14.053 14.465 14.833 15.95.78 1.486 1.418 4.523 1.418 6.75V101h15V56.802l-10.137-10.901L143.726 35H92v13m-29 80v53h44v-25l-8.75-.056c-10.813-.07-15-1.431-17.965-5.842-2.274-3.382-2.285-3.567-2.285-39.25V75H63v53m29-19.5V142h15v-16.05c0-12.094.359-16.743 1.456-18.865 2.295-4.438 7.017-6.085 17.445-6.085 8.79 0 9.099-.077 9.099-2.267 0-1.551-3.4-5.657-10.766-13L113.467 75H92v33.5m29 20V142h14v-27h-14v13.5m28 0V142h15v-27h-15v13.5m29 6.198c0 12.654-.096 13.263-2.564 16.196-3.224 3.831-7.725 5.093-18.186 5.1L149 156v32.2l-3.4 3.4-3.4 3.4H121v27h72v-85.55l-7.5-7.45-7.5-7.45v13.148m-57.198 33.554l-.302 12.752 7.25-.002L135 181v-25.5h-13.896l-.302 12.752" fill="#D6D6D6" fill-rule="evenodd"/><path fill-opacity=".421" d="M85.378 22.437C79.489 25 79 26.708 79 44.723V61H68.901c-11.486 0-16.082 1.516-18.445 6.085-2.225 4.303-2.168 117.637.061 121.948C53.406 194.619 55.444 195 82.45 195H107v15.099c0 17.276.961 20.706 6.546 23.356 2.979 1.413 8.436 1.575 44.904 1.327l41.513-.282 3.269-3.268 3.268-3.269.297-45.231c.163-24.878.012-46.807-.337-48.732-.504-2.785-3.476-6.369-14.547-17.543L178 102.414V78.141c0-16.495-.372-24.972-1.16-26.457-1.914-3.602-24.71-27.048-28.133-28.934-2.821-1.554-6.364-1.746-31.691-1.711-21.76.03-29.256.361-31.638 1.398m6.289 12.23c-.367.366-.667 6.441-.667 13.5V61h13.352c16.248 0 15.181-.577 31.971 17.284 11.939 12.699 12.021 12.82 12.475 18.289l.456 5.507 7.623-.29 7.623-.29.27-22.465.269-22.464-11.253-11.286L142.533 34h-25.1c-13.805 0-25.4.3-25.766.667M62.241 128.25l.259 53.25 22.25.269 22.25.269V155.177l-11.084-.339-11.084-.338-2.916-3.266L79 147.968V75H61.982l.259 53.25M91 108.5V142h16v-15.55c0-22.605.778-23.701 17.373-24.45 10.438-.471 11.078-.622 11.075-2.605-.002-1.299-4.038-6.37-10.545-13.25L114.361 75H91v33.5m29.706 6.127c-.388.388-.706 6.725-.706 14.082v13.375l7.567-.292 7.568-.292v-27l-6.861-.29c-3.774-.159-7.179.029-7.568.417m29 0c-.388.388-.706 6.706-.706 14.04V142h16.056l-.278-13.75-.278-13.75-7.044-.29c-3.874-.159-7.361.029-7.75.417m28.323 18.222C177.983 152.577 175.907 155 159.05 155H149v15.55c0 22.66-1.387 24.45-18.95 24.45H120v27h74v-85.064l-7.971-8.218-7.971-8.218-.029 12.349m-57.808 35.358l.279 13.293h14.633l.003-13 .003-13-7.599-.293-7.599-.292.28 13.292" fill="#D6D6D6" fill-rule="evenodd"/><path fill-opacity=".984" d="M57.035 62.306c-1.992.686-4.447 2.653-5.773 4.626l-2.308 3.432.273 58.799.273 58.8 3.268 3.268 3.269 3.269 41.731.264c40.47.256 41.832.203 45.042-1.772 5.214-3.207 6.19-6.906 6.19-23.46V155h-13v27H62V74h16V61l-8.75.056c-4.812.031-10.309.594-12.215 1.25M92 67.5V74h21.533l11.233 11.266L136 96.531V142h13v-23.435c0-13.906-.427-24.579-1.05-26.25-1.703-4.568-26.815-29.177-30.95-30.329-1.925-.536-8.338-.977-14.25-.98L92 61v6.5" fill="#D6D6D6" fill-rule="evenodd"/></svg>